<?xml version="1.0" standalone="no"?>
<!DOCTYPE svg PUBLIC "-//W3C//DTD SVG 20010904//EN"
 "http://www.w3.org/TR/2001/REC-SVG-20010904/DTD/svg10.dtd">
<svg version="1.0" xmlns="http://www.w3.org/2000/svg"
 width="300.000000pt" height="300.000000pt" viewBox="0 0 300.000000 300.000000"
 preserveAspectRatio="xMidYMid meet">
<metadata>
Created by potrace 1.10, written by Peter Selinger 2001-2011
</metadata>
<g transform="translate(0.000000,300.000000) scale(0.100000,-0.100000)"
fill="#000000" stroke="none">
<path d="M1250 2460 c-102 -17 -259 -84 -310 -132 -10 -10 -23 -18 -27 -18
-10 0 -100 -93 -131 -135 -69 -93 -103 -162 -139 -280 -13 -41 -16 -145 -20
-585 -3 -293 -2 -558 2 -586 8 -68 39 -113 95 -142 58 -30 123 -26 179 11 72
48 75 60 72 334 l-2 241 165 114 c414 283 372 258 436 258 70 0 105 12 143 48
81 77 73 189 -20 259 -36 27 -40 28 -163 28 -127 -1 -127 -1 -184 -35 -32 -19
-65 -42 -74 -50 -9 -8 -51 -38 -92 -65 -125 -85 -199 -140 -200 -148 0 -11 41
2 61 19 8 8 19 14 23 14 4 0 33 19 64 43 31 23 70 51 87 62 16 10 34 22 40 27
5 5 21 17 34 28 13 11 32 22 42 25 11 4 19 10 19 14 0 5 19 16 43 24 61 24
223 25 271 2 20 -10 35 -20 32 -22 -3 -3 4 -15 15 -26 25 -27 33 -58 25 -101
-14 -75 -76 -116 -182 -121 -56 -3 -71 -9 -149 -60 -48 -31 -94 -62 -101 -68
-33 -29 -44 -37 -44 -32 0 4 -7 -1 -17 -10 -16 -16 -75 -58 -116 -82 -11 -6
-22 -15 -26 -20 -3 -4 -13 -12 -23 -18 -59 -36 -108 -73 -119 -90 -9 -15 -13
-84 -14 -256 -2 -263 -4 -273 -72 -316 -48 -32 -98 -30 -154 6 -72 45 -71 35
-66 676 4 592 2 576 51 687 9 21 17 41 18 45 1 9 20 40 64 106 34 51 117 136
174 178 41 31 114 69 131 69 7 0 20 6 28 14 9 7 45 22 81 31 85 24 440 33 545
15 81 -14 201 -54 224 -74 9 -8 32 -21 53 -29 78 -32 263 -246 282 -327 1 -3
8 -16 15 -30 25 -45 42 -124 48 -230 6 -110 -10 -250 -29 -250 -6 0 -8 -6 -5
-13 3 -7 -3 -31 -14 -53 -10 -21 -18 -43 -19 -47 0 -4 -21 -40 -46 -80 -77
-119 -220 -244 -325 -282 -149 -55 -162 -58 -320 -63 -169 -5 -209 2 -252 42
-35 32 -45 111 -21 161 28 59 72 75 211 75 97 0 132 5 197 25 43 13 89 31 102
40 57 37 134 120 161 173 15 31 30 59 33 62 14 14 30 149 24 201 -10 87 -36
163 -76 223 -22 33 -48 66 -59 74 -10 7 -24 18 -31 25 -32 30 -98 66 -153 83
-87 27 -386 28 -460 0 -27 -10 -56 -19 -63 -20 -27 -5 -134 -90 -171 -136 -21
-27 -41 -47 -45 -44 -3 2 -4 1 -1 -2 2 -4 -3 -23 -12 -43 -39 -91 -64 -289
-37 -298 14 -5 24 42 24 111 1 107 35 196 105 274 45 50 126 112 146 112 5 0
17 4 27 9 57 31 332 43 444 20 195 -41 338 -221 338 -426 0 -162 -91 -314
-230 -385 -74 -37 -128 -47 -265 -48 -113 0 -134 -3 -164 -21 -46 -28 -59 -42
-76 -83 -19 -45 -19 -87 0 -132 18 -44 31 -56 83 -83 36 -18 59 -21 174 -21
263 0 438 64 596 217 119 117 184 236 223 408 34 147 21 276 -43 440 -62 161
-164 277 -333 382 -29 19 -82 41 -150 65 -54 19 -86 21 -310 24 -137 1 -270
-1 -295 -6z"/>
</g>
</svg>
